# Blender v2.62 (sub 0) OBJ File: ''
# www.blender.org
o Cube_Cube.026
v 9.000000 0.000000 1.000000
v 9.000000 0.000000 9.000000
v 1.000000 0.000000 9.000000
v 1.000000 0.000000 1.000000
v 9.000000 6.000000 1.000000
v 8.999999 6.000000 9.000000
v 1.000000 6.000000 9.000000
v 1.000000 6.000000 1.000000
vt 0.367146 0.368229
vt 0.719979 0.367146
vt 0.721062 0.719979
vt 0.368229 0.721062
vt 0.005493 0.004410
vt 0.358326 0.005493
vt 0.357243 0.358326
vt 0.004410 0.357243
vt 0.358326 0.719979
vt 0.093701 0.720791
vt 0.092619 0.367958
vt 0.357243 0.367146
vt 0.995590 0.719979
vt 0.730965 0.720791
vt 0.729883 0.367958
vt 0.994507 0.367146
vt 0.632854 0.357243
vt 0.368229 0.358055
vt 0.367146 0.005222
vt 0.631771 0.004410
vt 0.641674 0.005222
vt 0.906299 0.004410
vt 0.907382 0.357243
vt 0.642757 0.358055
vn 0.000000 -1.000000 0.000000
vn 0.000000 1.000000 0.000000
vn 1.000000 0.000000 0.000000
vn -0.000000 0.000000 1.000000
vn -1.000000 -0.000000 -0.000000
vn 0.000000 0.000000 -1.000000
s off
f 1/1/1 2/2/1 3/3/1
f 1/1/1 3/3/1 4/4/1
f 5/5/2 8/6/2 7/7/2
f 5/5/2 7/7/2 6/8/2
f 1/9/3 5/10/3 6/11/3
f 1/9/3 6/11/3 2/12/3
f 2/13/4 6/14/4 7/15/4
f 2/13/4 7/15/4 3/16/4
f 3/17/5 7/18/5 8/19/5
f 3/17/5 8/19/5 4/20/5
f 5/21/6 1/22/6 4/23/6
f 5/21/6 4/23/6 8/24/6
o Cube.002_Cube.025
v 9.000000 0.000000 0.000000
v 10.000000 0.000000 0.000000
v 10.000000 0.000000 9.000000
v 9.000000 0.000000 9.000000
v 9.000001 6.700000 -0.000000
v 10.000001 6.700000 0.000001
v 10.000000 6.700000 9.000000
v 9.000000 6.700000 9.000000
vt 0.855600 0.006319
vt 0.916911 0.006131
vt 0.918604 0.557925
vt 0.857293 0.558113
vt 0.993869 0.006319
vt 0.992176 0.558113
vt 0.930866 0.557925
vt 0.932559 0.006131
vt 0.492176 0.571447
vt 0.493436 0.982227
vt 0.432126 0.982415
vt 0.430866 0.571635
vt 0.418604 0.557925
vt 0.007824 0.559185
vt 0.006131 0.007391
vt 0.416911 0.006131
vt 0.916911 0.570375
vt 0.918171 0.981155
vt 0.856861 0.981343
vt 0.855600 0.570563
vt 0.430866 0.007391
vt 0.841645 0.006131
vt 0.843338 0.557925
vt 0.432559 0.559185
vn 0.000001 0.000000 -1.000000
s off
f 9/25/1 10/26/1 11/27/1
f 9/25/1 11/27/1 12/28/1
f 13/29/2 16/30/2 15/31/2
f 13/29/2 15/31/2 14/32/2
f 9/33/7 13/34/7 14/35/7
f 9/33/7 14/35/7 10/36/7
f 10/37/3 14/38/3 15/39/3
f 10/37/3 15/39/3 11/40/3
f 11/41/4 15/42/4 16/43/4
f 11/41/4 16/43/4 12/44/4
f 13/45/5 9/46/5 12/47/5
f 13/45/5 12/47/5 16/48/5
o Cube.001_Cube.024
v -0.000000 0.000000 1.000000
v -0.000000 0.000000 0.000000
v 9.000000 0.000000 -0.000001
v 9.000000 0.000000 0.999999
v -0.000000 6.700000 0.999999
v 0.000001 6.700000 -0.000001
v 9.000000 6.700000 -0.000001
v 9.000000 6.700000 0.999999
vt 0.855600 0.006319
vt 0.916911 0.006131
vt 0.918604 0.557925
vt 0.857293 0.558113
vt 0.993869 0.006319
vt 0.992176 0.558113
vt 0.930866 0.557925
vt 0.932559 0.006131
vt 0.492176 0.571447
vt 0.493436 0.982227
vt 0.432126 0.982415
vt 0.430866 0.571635
vt 0.418604 0.557925
vt 0.007824 0.559185
vt 0.006131 0.007391
vt 0.416911 0.006131
vt 0.916911 0.570375
vt 0.918171 0.981155
vt 0.856861 0.981343
vt 0.855600 0.570563
vt 0.430866 0.007391
vt 0.841645 0.006131
vt 0.843338 0.557925
vt 0.432559 0.559185
s off
f 17/49/1 18/50/1 19/51/1
f 17/49/1 19/51/1 20/52/1
f 21/53/2 24/54/2 23/55/2
f 21/53/2 23/55/2 22/56/2
f 17/57/5 21/58/5 22/59/5
f 17/57/5 22/59/5 18/60/5
f 18/61/6 22/62/6 23/63/6
f 18/61/6 23/63/6 19/64/6
f 19/65/3 23/66/3 24/67/3
f 19/65/3 24/67/3 20/68/3
f 21/69/4 17/70/4 20/71/4
f 21/69/4 20/71/4 24/72/4
o Cube.000_Cube.023
v 1.000000 0.000000 10.000000
v 0.000000 0.000000 10.000000
v -0.000000 0.000000 1.000000
v 1.000000 0.000000 1.000000
v 0.999999 6.700000 10.000001
v -0.000001 6.700000 9.999999
v -0.000000 6.700000 1.000000
v 0.999999 6.700000 1.000000
vt 0.855600 0.006319
vt 0.916911 0.006131
vt 0.918604 0.557925
vt 0.857293 0.558113
vt 0.993869 0.006319
vt 0.992176 0.558113
vt 0.930866 0.557925
vt 0.932559 0.006131
vt 0.492176 0.571447
vt 0.493436 0.982227
vt 0.432126 0.982415
vt 0.430866 0.571635
vt 0.418604 0.557925
vt 0.007824 0.559185
vt 0.006131 0.007391
vt 0.416911 0.006131
vt 0.916911 0.570375
vt 0.918171 0.981155
vt 0.856861 0.981343
vt 0.855600 0.570563
vt 0.430866 0.007391
vt 0.841645 0.006131
vt 0.843338 0.557925
vt 0.432559 0.559185
vn -0.000001 -0.000000 1.000000
s off
f 25/73/1 26/74/1 27/75/1
f 25/73/1 27/75/1 28/76/1
f 29/77/2 32/78/2 31/79/2
f 29/77/2 31/79/2 30/80/2
f 25/81/8 29/82/8 30/83/8
f 25/81/8 30/83/8 26/84/8
f 26/85/5 30/86/5 31/87/5
f 26/85/5 31/87/5 27/88/5
f 27/89/6 31/90/6 32/91/6
f 27/89/6 32/91/6 28/92/6
f 29/93/3 25/94/3 28/95/3
f 29/93/3 28/95/3 32/96/3
o Cube.003_Cube.022
v 10.000000 0.000000 9.000000
v 10.000000 0.000000 10.000000
v 1.000000 0.000000 10.000000
v 1.000000 0.000000 9.000000
v 10.000000 6.700000 9.000001
v 9.999999 6.700000 10.000001
v 1.000000 6.700000 10.000000
v 1.000000 6.700000 9.000000
vt 0.855600 0.006319
vt 0.916911 0.006131
vt 0.918604 0.557925
vt 0.857293 0.558113
vt 0.993869 0.006319
vt 0.992176 0.558113
vt 0.930866 0.557925
vt 0.932559 0.006131
vt 0.492176 0.571447
vt 0.493436 0.982227
vt 0.432126 0.982415
vt 0.430866 0.571635
vt 0.418604 0.557925
vt 0.007824 0.559185
vt 0.006131 0.007391
vt 0.416911 0.006131
vt 0.916911 0.570375
vt 0.918171 0.981155
vt 0.856861 0.981343
vt 0.855600 0.570563
vt 0.430866 0.007391
vt 0.841645 0.006131
vt 0.843338 0.557925
vt 0.432559 0.559185
s off
f 33/97/1 34/98/1 35/99/1
f 33/97/1 35/99/1 36/100/1
f 37/101/2 40/102/2 39/103/2
f 37/101/2 39/103/2 38/104/2
f 33/105/3 37/106/3 38/107/3
f 33/105/3 38/107/3 34/108/3
f 34/109/4 38/110/4 39/111/4
f 34/109/4 39/111/4 35/112/4
f 35/113/5 39/114/5 40/115/5
f 35/113/5 40/115/5 36/116/5
f 37/117/6 33/118/6 36/119/6
f 37/117/6 36/119/6 40/120/6
