# Blender v2.62 (sub 0) OBJ File: 'module.blend'
# www.blender.org
o Cube_Cube.002
v 1.500000 0.000000 -1.500000
v 1.500000 0.000000 1.500000
v -1.500000 0.000000 1.500000
v -1.500000 0.000000 -1.500000
v 1.500000 10.000000 -1.500000
v 1.499999 10.000000 1.500001
v -1.500000 10.000000 1.500000
v -1.500000 10.000000 -1.500000
v 0.800000 0.000000 1.500000
v 0.800000 0.000000 2.000000
v -0.800000 0.000000 2.000000
v -0.800000 0.000000 1.500000
v 0.800000 5.000000 1.500001
v 0.799999 5.000000 2.000001
v -0.800000 5.000000 2.000000
v -0.800000 5.000000 1.500000
v -0.800000 5.000000 -2.000000
v -0.800000 5.000000 -1.500000
v 0.799999 5.000000 -1.499999
v 0.800000 5.000000 -2.000000
v -0.800000 0.000000 -2.000000
v -0.800000 0.000000 -1.500000
v 0.800000 0.000000 -1.500000
v 0.800000 0.000000 -2.000000
v 2.000000 0.000000 1.000000
v 1.500000 0.000000 1.000000
v 1.500000 0.000000 -1.000000
v 2.000000 0.000000 -0.999999
v 2.000000 5.000000 1.000001
v 1.499999 5.000000 1.000000
v 1.500000 5.000000 -1.000000
v 2.000000 5.000000 -1.000000
v -1.500000 5.000000 -1.000000
v -2.000000 5.000000 -1.000000
v -2.000001 5.000000 1.000000
v -1.500001 5.000000 1.000001
v -1.500000 0.000000 -0.999999
v -2.000000 0.000000 -1.000000
v -2.000000 0.000000 1.000000
v -1.500000 0.000000 1.000000
v -2.000001 6.000000 1.000000
v -1.500001 6.000000 1.000001
v -2.000000 6.000000 -1.000000
v -1.500000 6.000000 -1.000000
v 2.000000 6.000000 1.000001
v 2.000000 6.000000 -1.000000
v 1.500000 6.000000 -1.000000
v 1.499999 6.000000 1.000000
v 0.799999 6.000000 -1.499999
v 0.800000 6.000000 -2.000000
v -0.800000 6.000000 -1.500000
v -0.800000 6.000000 -2.000000
v 0.800000 6.000000 1.500001
v -0.800000 6.000000 1.500000
v -0.800000 6.000000 2.000000
v 0.799999 6.000000 2.000001
v -1.500000 6.000000 1.500000
v -1.500000 6.000000 1.999999
v -1.500000 5.000000 1.999999
v -1.500000 5.000000 1.500000
v 1.500000 6.000000 1.500002
v 1.499999 6.000000 2.000002
v 1.499999 5.000000 2.000002
v 1.500000 5.000000 1.500002
v 1.999998 6.000000 1.500001
v 1.499998 6.000000 1.500000
v 1.499998 5.000000 1.500000
v 1.999998 5.000000 1.500001
v 2.000000 6.000000 -1.500000
v 1.500000 6.000000 -1.500000
v 1.500000 5.000000 -1.500000
v 2.000000 5.000000 -1.500000
v 1.499999 5.000000 -1.499998
v 1.499999 6.000000 -1.499998
v 1.500000 6.000000 -1.999998
v 1.500000 5.000000 -1.999998
v -1.500000 5.000000 -2.000000
v -1.500000 6.000000 -2.000000
v -1.500000 6.000000 -1.500001
v -1.500000 5.000000 -1.500001
v -1.500000 5.000000 -1.500000
v -1.500000 6.000000 -1.500000
v -2.000000 6.000000 -1.500000
v -2.000000 5.000000 -1.500000
v -2.000002 5.000000 1.500000
v -2.000002 6.000000 1.500000
v -1.500002 6.000000 1.500001
v -1.500002 5.000000 1.500001
v -2.000003 5.000000 2.000000
v -1.500003 5.000000 2.000001
v -1.500003 6.000000 2.000001
v -2.000003 6.000000 2.000000
v 1.999999 5.000000 2.000003
v 2.000000 5.000000 1.500003
v 2.000000 6.000000 1.500003
v 1.999999 6.000000 2.000003
v 1.500001 5.000000 -2.000000
v 2.000001 5.000000 -2.000000
v 2.000001 6.000000 -2.000000
v 1.500001 6.000000 -2.000000
v -2.000000 5.000000 -2.000001
v -2.000000 5.000000 -1.500001
v -2.000000 6.000000 -1.500001
v -2.000000 6.000000 -2.000001
vt 0.000000 0.000000
vt 0.000000 1.000000
vt 1.000000 1.000000
vt 1.000000 0.000000
vn -0.000000 -0.000000 1.000000
vn 0.000000 -1.000000 0.000000
vn 0.000000 1.000000 0.000000
vn 1.000000 0.000000 0.000000
vn -1.000000 -0.000000 -0.000000
vn 0.000000 0.000000 -1.000000
vn 1.000000 0.000000 0.000001
vn -1.000000 -0.000000 -0.000001
vn -0.000001 0.000000 1.000000
vn 0.000001 -0.000000 -1.000000
vn -0.000002 0.000000 1.000000
vn 0.000002 0.000000 -1.000000
vn -1.000000 0.000000 -0.000002
vn 1.000000 0.000000 0.000002
s off
f 23/1/1 19/2/1 18/3/1
f 23/1/1 18/3/1 22/4/1
f 1/1/2 2/4/2 3/3/2
f 1/1/2 3/3/2 4/2/2
f 5/1/3 8/4/3 7/3/3
f 5/1/3 7/3/3 6/2/3
f 1/1/4 5/4/4 6/3/4
f 1/1/4 6/3/4 2/2/4
f 2/1/1 6/4/1 7/3/1
f 2/1/1 7/3/1 3/2/1
f 3/1/5 7/4/5 8/3/5
f 3/1/5 8/3/5 4/2/5
f 5/1/6 1/4/6 4/3/6
f 5/1/6 4/3/6 8/2/6
f 11/1/2 12/2/2 9/3/2
f 11/1/2 9/3/2 10/4/2
f 9/1/7 13/2/7 14/3/7
f 9/1/7 14/3/7 10/4/7
f 10/1/1 14/2/1 15/3/1
f 10/1/1 15/3/1 11/4/1
f 11/1/8 15/2/8 16/3/8
f 11/1/8 16/3/8 12/4/8
f 12/1/6 16/2/6 13/3/6
f 12/1/6 13/3/6 9/4/6
f 21/1/6 17/2/6 20/3/6
f 21/1/6 20/3/6 24/4/6
f 22/1/8 18/2/8 17/3/8
f 22/1/8 17/3/8 21/4/8
f 24/1/7 20/2/7 19/3/7
f 24/1/7 19/3/7 23/4/7
f 22/1/2 21/2/2 24/3/2
f 22/1/2 24/3/2 23/4/2
f 27/1/2 28/2/2 25/3/2
f 27/1/2 25/3/2 26/4/2
f 25/1/9 29/2/9 30/3/9
f 25/1/9 30/3/9 26/4/9
f 26/1/5 30/2/5 31/3/5
f 26/1/5 31/3/5 27/4/5
f 27/1/10 31/2/10 32/3/10
f 27/1/10 32/3/10 28/4/10
f 28/1/4 32/2/4 29/3/4
f 28/1/4 29/3/4 25/4/4
f 37/1/4 33/2/4 36/3/4
f 37/1/4 36/3/4 40/4/4
f 38/1/10 34/2/10 33/3/10
f 38/1/10 33/3/10 37/4/10
f 39/1/5 35/2/5 34/3/5
f 39/1/5 34/3/5 38/4/5
f 40/1/9 36/2/9 35/3/9
f 40/1/9 35/3/9 39/4/9
f 38/1/2 37/2/2 40/3/2
f 38/1/2 40/3/2 39/4/2
f 34/1/5 35/2/5 41/3/5
f 34/1/5 41/3/5 43/4/5
f 36/1/4 33/2/4 44/3/4
f 36/1/4 44/3/4 42/4/4
f 29/1/4 32/2/4 46/3/4
f 29/1/4 46/3/4 45/4/4
f 31/1/5 30/2/5 48/3/5
f 31/1/5 48/3/5 47/4/5
f 18/1/9 19/2/9 49/3/9
f 18/1/9 49/3/9 51/4/9
f 20/1/6 17/2/6 52/3/6
f 20/1/6 52/3/6 50/4/6
f 13/1/6 16/2/6 54/3/6
f 13/1/6 54/3/6 53/4/6
f 15/1/9 14/2/9 56/3/9
f 15/1/9 56/3/9 55/4/9
f 42/1/3 44/2/3 43/3/3
f 42/1/3 43/3/3 41/4/3
f 45/1/3 46/2/3 47/3/3
f 45/1/3 47/3/3 48/4/3
f 50/1/3 52/2/3 51/3/3
f 50/1/3 51/3/3 49/4/3
f 53/1/3 54/2/3 55/3/3
f 53/1/3 55/3/3 56/4/3
f 55/1/3 54/2/3 57/3/3
f 55/1/3 57/3/3 58/4/3
f 15/1/9 55/2/9 58/3/9
f 15/1/9 58/3/9 59/4/9
f 54/1/10 16/2/10 60/3/10
f 54/1/10 60/3/10 57/4/10
f 16/1/2 15/2/2 59/3/2
f 16/1/2 59/3/2 60/4/2
f 60/1/8 59/2/8 58/3/8
f 60/1/8 58/3/8 57/4/8
f 53/1/3 56/2/3 62/3/3
f 53/1/3 62/3/3 61/4/3
f 56/1/11 14/2/11 63/3/11
f 56/1/11 63/3/11 62/4/11
f 13/1/12 53/2/12 61/3/12
f 13/1/12 61/3/12 64/4/12
f 14/1/2 13/2/2 64/3/2
f 14/1/2 64/3/2 63/4/2
f 45/1/3 48/2/3 66/3/3
f 45/1/3 66/3/3 65/4/3
f 48/1/13 30/2/13 67/3/13
f 48/1/13 67/3/13 66/4/13
f 29/1/14 45/2/14 65/3/14
f 29/1/14 65/3/14 68/4/14
f 30/1/2 29/2/2 68/3/2
f 30/1/2 68/3/2 67/4/2
f 67/1/11 68/2/11 65/3/11
f 67/1/11 65/3/11 66/4/11
f 47/1/3 46/2/3 69/3/3
f 47/1/3 69/3/3 70/4/3
f 31/1/8 47/2/8 70/3/8
f 31/1/8 70/3/8 71/4/8
f 46/1/7 32/2/7 72/3/7
f 46/1/7 72/3/7 69/4/7
f 32/1/2 31/2/2 71/3/2
f 32/1/2 71/3/2 72/4/2
f 49/1/11 19/2/11 73/3/11
f 49/1/11 73/3/11 74/4/11
f 50/1/3 49/2/3 74/3/3
f 50/1/3 74/3/3 75/4/3
f 20/1/12 50/2/12 75/3/12
f 20/1/12 75/3/12 76/4/12
f 19/1/2 20/2/2 76/3/2
f 19/1/2 76/3/2 73/4/2
f 73/1/14 76/2/14 75/3/14
f 73/1/14 75/3/14 74/4/14
f 52/1/10 17/2/10 77/3/10
f 52/1/10 77/3/10 78/4/10
f 51/1/3 52/2/3 78/3/3
f 51/1/3 78/3/3 79/4/3
f 18/1/9 51/2/9 79/3/9
f 18/1/9 79/3/9 80/4/9
f 17/1/2 18/2/2 80/3/2
f 17/1/2 80/3/2 77/4/2
f 44/1/7 33/2/7 81/3/7
f 44/1/7 81/3/7 82/4/7
f 43/1/3 44/2/3 82/3/3
f 43/1/3 82/3/3 83/4/3
f 34/1/8 43/2/8 83/3/8
f 34/1/8 83/3/8 84/4/8
f 33/1/2 34/2/2 84/3/2
f 33/1/2 84/3/2 81/4/2
f 81/1/10 84/2/10 83/3/10
f 81/1/10 83/3/10 82/4/10
f 41/1/13 35/2/13 85/3/13
f 41/1/13 85/3/13 86/4/13
f 42/1/3 41/2/3 86/3/3
f 42/1/3 86/3/3 87/4/3
f 36/1/14 42/2/14 87/3/14
f 36/1/14 87/3/14 88/4/14
f 35/1/2 36/2/2 88/3/2
f 35/1/2 88/3/2 85/4/2
f 85/1/2 88/2/2 90/3/2
f 85/1/2 90/3/2 89/4/2
f 88/1/14 87/2/14 91/3/14
f 88/1/14 91/3/14 90/4/14
f 87/1/3 86/2/3 92/3/3
f 87/1/3 92/3/3 91/4/3
f 86/1/13 85/2/13 89/3/13
f 86/1/13 89/3/13 92/4/13
f 89/1/11 90/2/11 91/3/11
f 89/1/11 91/3/11 92/4/11
f 63/1/2 64/2/2 94/3/2
f 63/1/2 94/3/2 93/4/2
f 64/1/12 61/2/12 95/3/12
f 64/1/12 95/3/12 94/4/12
f 62/1/11 63/2/11 93/3/11
f 62/1/11 93/3/11 96/4/11
f 61/1/3 62/2/3 96/3/3
f 61/1/3 96/3/3 95/4/3
f 93/1/14 94/2/14 95/3/14
f 93/1/14 95/3/14 96/4/14
f 72/1/2 71/2/2 97/3/2
f 72/1/2 97/3/2 98/4/2
f 69/1/7 72/2/7 98/3/7
f 69/1/7 98/3/7 99/4/7
f 71/1/8 70/2/8 100/3/8
f 71/1/8 100/3/8 97/4/8
f 70/1/3 69/2/3 99/3/3
f 70/1/3 99/3/3 100/4/3
f 98/1/6 97/2/6 100/3/6
f 98/1/6 100/3/6 99/4/6
f 77/1/2 80/2/2 102/3/2
f 77/1/2 102/3/2 101/4/2
f 80/1/9 79/2/9 103/3/9
f 80/1/9 103/3/9 102/4/9
f 79/1/3 78/2/3 104/3/3
f 79/1/3 104/3/3 103/4/3
f 78/1/10 77/2/10 101/3/10
f 78/1/10 101/3/10 104/4/10
f 101/1/8 102/2/8 103/3/8
f 101/1/8 103/3/8 104/4/8
