# Blender v2.62 (sub 0) OBJ File: ''
# www.blender.org
o Cube
v 4.234220 0.000000 -1.538706
v 4.632394 0.000000 2.281064
v -4.679239 0.000000 2.538706
v -4.491862 0.000000 -1.187376
v 4.000000 1.000000 -0.999999
v 3.999999 1.000000 2.000000
v -4.000000 1.000000 2.000000
v -3.865093 1.000000 -0.629006
v 3.280859 3.044960 -0.358697
v -3.049449 3.106949 -0.701792
v -2.689367 2.658707 1.090651
v 3.353730 2.895092 1.978346
v 2.914252 5.249348 -0.236337
v 3.063119 5.000000 1.063120
v -2.667812 4.658707 1.144987
v -2.251287 4.765656 -0.801675
v 0.221304 0.000000 3.851235
v 4.903790 0.000000 0.290834
v -0.352796 0.000000 -2.451350
v -5.058762 0.000000 0.711061
v 4.364737 1.232938 0.509997
v 0.313578 1.649570 2.442464
v -4.335964 1.272414 0.483023
v -0.049326 1.739385 -1.319112
v 4.410705 0.436982 2.206675
v 4.180528 0.439727 -1.357979
v -4.433811 0.417134 2.356801
v -4.331533 0.466311 -1.169179
v -3.658552 1.975213 -0.692070
v 0.116488 3.423757 -0.988716
v 3.363617 2.021739 -0.453565
v -3.646251 1.972545 1.599401
v -3.280228 3.196921 0.181386
v 3.495830 1.870911 2.106603
v 0.386534 3.368757 1.967671
v 3.745510 3.010113 0.779854
v 3.014832 4.341481 -0.338028
v 3.049106 5.228179 0.552875
v 3.140807 3.984408 1.770890
v -0.105446 5.580636 1.643577
v -2.610498 3.754316 1.126465
v -2.865963 4.820751 0.342780
v -2.861926 4.193280 -0.823755
v 0.146867 5.668770 -0.498284
v -0.172631 0.000000 0.519993
v 4.835187 0.411473 0.379559
v 0.084065 0.397899 3.560116
v -4.915491 0.465393 0.598005
v -0.024413 0.605650 -2.228387
v 0.056359 2.543469 -1.123913
v -3.940579 2.138924 0.442165
v 0.354683 2.483948 2.166195
v 4.164373 2.144346 0.491821
v 3.391132 4.325041 0.723033
v 0.286492 4.655375 1.677493
v -3.197556 4.347907 0.206131
v 0.134438 4.624399 -0.839279
v 0.067847 6.155485 0.335992
vt 0.162721 0.533328
vt 0.073878 0.474520
vt 0.073445 0.241794
vt 0.229162 0.278906
vt 0.262696 0.542327
vt 0.406736 0.310636
vt 0.192014 0.019994
vt 0.296613 0.014098
vt 0.394793 0.059131
vt 0.402456 0.566399
vt 0.389216 0.600342
vt 0.319235 0.615751
vt 0.320853 0.564752
vt 0.406736 0.542327
vt 0.320964 0.542460
vt 0.236127 0.623109
vt 0.223128 0.588589
vt 0.216328 0.563138
vt 0.704385 0.502453
vt 0.669780 0.484273
vt 0.621663 0.291259
vt 0.702991 0.270171
vt 0.729122 0.511445
vt 0.729036 0.274739
vt 0.619579 0.057151
vt 0.652523 0.030000
vt 0.675217 0.014098
vt 0.906938 0.544630
vt 0.883728 0.580843
vt 0.812409 0.587783
vt 0.824799 0.537476
vt 0.918742 0.519614
vt 0.831268 0.511445
vt 0.746958 0.579505
vt 0.724938 0.544168
vt 0.724959 0.517659
vt 0.678826 0.969815
vt 0.645998 0.942645
vt 0.622034 0.738148
vt 0.691354 0.740763
vt 0.703268 0.979221
vt 0.724939 0.759896
vt 0.665935 0.521150
vt 0.699579 0.513196
vt 0.724757 0.511445
vt 0.595677 0.930123
vt 0.577826 0.730718
vt 0.605066 0.552399
vt 0.537370 0.895606
vt 0.530136 0.725750
vt 0.549972 0.554967
vt 0.860921 0.635858
vt 0.806982 0.638435
vt 0.743807 0.632843
vt 0.535134 0.068774
vt 0.565709 0.082545
vt 0.528168 0.138397
vt 0.481336 0.110976
vt 0.786703 0.702724
vt 0.737463 0.700474
vt 0.624567 0.462828
vt 0.574985 0.298986
vt 0.569768 0.461871
vt 0.527072 0.306481
vt 0.098486 0.542327
vt 0.135271 0.618133
vt 0.073445 0.613697
vt 0.073479 0.546795
vt 0.329397 0.664493
vt 0.235968 0.677048
vt 0.367018 0.667743
vt 0.374156 0.720419
vt 0.320882 0.717804
vt 0.253832 0.729297
vt 0.386453 0.789719
vt 0.336365 0.789235
vt 0.275756 0.785598
vt 0.391585 0.837147
vt 0.352572 0.839327
vt 0.323813 0.831704
vt 0.509848 0.457608
vt 0.456456 0.309566
vt 0.474036 0.149568
vt 0.445702 0.460477
vt 0.406736 0.294567
vt 0.428391 0.152262
vt 0.821885 0.685198
vt 0.826268 0.742916
vt 0.790651 0.763341
vt 0.731989 0.759172
vt 0.831289 0.788675
vt 0.793965 0.792958
vt 0.725300 0.798039
vt 0.481769 0.884063
vt 0.465325 0.722495
vt 0.480875 0.567107
vt 0.452616 0.850294
vt 0.406736 0.719344
vt 0.431753 0.570803
vt 0.837775 0.188425
vt 0.851117 0.306428
vt 0.787906 0.326502
vt 0.786834 0.188540
vt 0.851403 0.038269
vt 0.812810 0.022622
vt 0.751476 0.306004
vt 0.729122 0.177612
vt 0.790940 0.014098
vn -0.000000 -1.000000 0.000000
vn 0.822568 0.489716 -0.289068
vn 0.911290 0.237424 -0.336423
vn 0.815816 0.531747 0.227353
vn 0.933561 0.316570 0.168067
vn 0.219173 0.589348 0.777581
vn 0.275974 0.482563 0.831247
vn -0.183332 0.655265 0.732814
vn -0.220807 0.511330 0.830533
vn -0.741491 0.624169 0.246180
vn -0.865592 0.452745 0.213944
vn -0.696837 0.643862 -0.316006
vn -0.918669 0.269994 -0.288357
vn -0.224618 0.672489 -0.705199
vn -0.256033 0.321795 -0.911535
vn 0.178193 0.603194 -0.777434
vn 0.194656 0.308419 -0.931121
vn -0.163834 0.101619 -0.981240
vn 0.190955 0.416541 -0.888836
vn -0.116117 0.100246 -0.988164
vn 0.211569 0.119752 -0.969999
vn -0.866322 0.418387 0.272836
vn -0.895054 0.272613 -0.352932
vn -0.534966 0.702874 0.468805
vn -0.846583 0.457106 -0.272673
vn 0.095597 0.124223 0.987638
vn -0.163324 0.377182 0.911624
vn 0.038262 0.170749 0.984571
vn -0.256251 0.526298 0.810769
vn 0.777064 0.455148 -0.434754
vn 0.878248 0.329991 0.346103
vn 0.805121 0.315592 -0.502176
vn 0.898313 0.235262 0.371059
vn 0.914380 0.212459 -0.344630
vn 0.916203 0.250560 0.312715
vn 0.941333 0.220399 -0.255571
vn 0.914044 0.316191 0.254061
vn 0.023395 0.207895 0.977871
vn -0.256884 0.100352 0.961218
vn 0.153590 0.384943 0.910071
vn -0.177317 -0.035263 0.983522
vn -0.827262 0.044387 0.560060
vn -0.950234 0.101966 -0.294376
vn -0.881214 0.124104 0.456136
vn -0.667027 0.655171 -0.354720
vn -0.051022 0.016580 -0.998560
vn 0.192334 0.085699 -0.977580
vn -0.002351 0.219977 -0.975502
vn 0.157920 0.225146 -0.961442
vn -0.344287 0.867799 -0.358317
vn 0.240957 0.930709 -0.275174
vn -0.384790 0.869962 0.308388
vn 0.240013 0.880038 0.409788
s off
f 20/1/1 4/2/1 19/3/1
f 20/1/1 19/3/1 45/4/1
f 3/5/1 20/1/1 45/4/1
f 3/5/1 45/4/1 17/6/1
f 1/7/1 18/8/1 45/4/1
f 1/7/1 45/4/1 19/3/1
f 17/6/1 45/4/1 18/8/1
f 17/6/1 18/8/1 2/9/1
f 26/10/2 5/11/2 21/12/2
f 26/10/2 21/12/2 46/13/2
f 1/14/3 26/10/3 46/13/3
f 1/14/3 46/13/3 18/15/3
f 46/13/4 21/12/4 6/16/4
f 46/13/4 6/16/4 25/17/4
f 18/15/5 46/13/5 25/17/5
f 18/15/5 25/17/5 2/18/5
f 25/19/6 6/20/6 22/21/6
f 25/19/6 22/21/6 47/22/6
f 2/23/7 25/19/7 47/22/7
f 2/23/7 47/22/7 17/24/7
f 47/22/8 22/21/8 7/25/8
f 47/22/8 7/25/8 27/26/8
f 17/24/9 47/22/9 27/26/9
f 17/24/9 27/26/9 3/27/9
f 27/28/10 7/29/10 23/30/10
f 27/28/10 23/30/10 48/31/10
f 3/32/11 27/28/11 48/31/11
f 3/32/11 48/31/11 20/33/11
f 48/31/12 23/30/12 8/34/12
f 48/31/12 8/34/12 28/35/12
f 20/33/13 48/31/13 28/35/13
f 20/33/13 28/35/13 4/36/13
f 28/37/14 8/38/14 24/39/14
f 28/37/14 24/39/14 49/40/14
f 4/41/15 28/37/15 49/40/15
f 4/41/15 49/40/15 19/42/15
f 49/40/16 24/39/16 5/43/16
f 49/40/16 5/43/16 26/44/16
f 26/44/17 1/45/17 19/42/17
f 26/44/17 19/42/17 49/40/17
f 24/39/18 8/38/18 29/46/18
f 24/39/18 29/46/18 50/47/18
f 5/43/19 24/39/19 50/47/19
f 5/43/19 50/47/19 31/48/19
f 50/47/20 29/46/20 10/49/20
f 50/47/20 10/49/20 30/50/20
f 31/48/21 50/47/21 30/50/21
f 31/48/21 30/50/21 9/51/21
f 23/30/22 7/29/22 32/52/22
f 23/30/22 32/52/22 51/53/22
f 8/34/23 23/30/23 51/53/23
f 8/34/23 51/53/23 29/54/23
f 51/55/24 32/56/24 11/57/24
f 51/55/24 11/57/24 33/58/24
f 29/54/25 51/53/25 33/59/25
f 29/54/25 33/59/25 10/60/25
f 22/21/26 6/20/26 34/61/26
f 22/21/26 34/61/26 52/62/26
f 7/25/27 22/21/27 52/62/27
f 7/25/27 52/62/27 32/56/27
f 52/62/28 34/61/28 12/63/28
f 52/62/28 12/63/28 35/64/28
f 32/56/29 52/62/29 35/64/29
f 32/56/29 35/64/29 11/57/29
f 21/65/30 5/66/30 31/67/30
f 21/65/30 31/67/30 53/68/30
f 6/16/31 21/12/31 53/69/31
f 6/16/31 53/69/31 34/70/31
f 53/69/32 31/71/32 9/72/32
f 53/69/32 9/72/32 36/73/32
f 34/70/33 53/69/33 36/73/33
f 34/70/33 36/73/33 12/74/33
f 36/73/34 9/72/34 37/75/34
f 36/73/34 37/75/34 54/76/34
f 12/74/35 36/73/35 54/76/35
f 12/74/35 54/76/35 39/77/35
f 54/76/36 37/75/36 13/78/36
f 54/76/36 13/78/36 38/79/36
f 39/77/37 54/76/37 38/79/37
f 39/77/37 38/79/37 14/80/37
f 35/64/38 12/63/38 39/81/38
f 35/64/38 39/81/38 55/82/38
f 11/57/39 35/64/39 55/82/39
f 11/57/39 55/82/39 41/83/39
f 55/82/40 39/81/40 14/84/40
f 55/82/40 14/84/40 40/85/40
f 41/83/41 55/82/41 40/85/41
f 41/83/41 40/85/41 15/86/41
f 33/59/42 11/87/42 41/88/42
f 33/59/42 41/88/42 56/89/42
f 10/60/43 33/59/43 56/89/43
f 10/60/43 56/89/43 43/90/43
f 56/89/44 41/88/44 15/91/44
f 56/89/44 15/91/44 42/92/44
f 43/90/45 56/89/45 42/92/45
f 43/90/45 42/92/45 16/93/45
f 30/50/46 10/49/46 43/94/46
f 30/50/46 43/94/46 57/95/46
f 9/51/47 30/50/47 57/95/47
f 9/51/47 57/95/47 37/96/47
f 57/95/48 43/94/48 16/97/48
f 57/95/48 16/97/48 44/98/48
f 37/96/49 57/95/49 44/98/49
f 37/96/49 44/98/49 13/99/49
f 44/100/50 16/101/50 42/102/50
f 44/100/50 42/102/50 58/103/50
f 13/104/51 44/100/51 58/103/51
f 13/104/51 58/103/51 38/105/51
f 58/103/52 42/102/52 15/106/52
f 58/103/52 15/106/52 40/107/52
f 38/105/53 58/103/53 40/107/53
f 38/105/53 40/107/53 14/108/53
