# Blender v2.62 (sub 0) OBJ File: ''
# www.blender.org
o Sphere_Sphere.001
v -0.007925 1.463898 0.009932
v 0.378211 1.315762 -0.001028
v 0.995084 0.000000 0.008837
v 0.934670 0.000000 -0.404681
v 0.952231 0.405570 -0.394731
v 0.907355 0.798217 -0.369244
v 0.653290 1.107114 -0.270597
v 0.353434 1.323666 -0.146470
v 0.271366 1.329761 -0.272611
v 0.500000 1.107107 -0.500000
v 0.653281 0.782683 -0.653281
v 0.790688 0.396823 -0.781553
v 0.768906 0.000000 -0.771485
v 0.413640 0.000000 -0.976514
v 0.426712 0.389325 -1.032338
v 0.353553 0.782683 -0.853553
v 0.270314 1.107825 -0.653967
v 0.148542 1.352971 -0.363752
v -0.003604 1.392669 -0.405556
v -0.004856 1.119378 -0.718830
v -0.000000 0.782683 -0.923880
v 0.004015 0.396276 -1.055318
v -0.004343 0.000000 -1.116356
v -0.464696 0.000000 -1.146522
v -0.384935 0.399755 -0.927560
v -0.353553 0.782683 -0.853553
v -0.270739 1.107482 -0.653622
v -0.160185 1.418774 -0.382080
v -0.291939 1.417376 -0.296361
v -0.502018 1.110748 -0.501057
v -0.662980 0.788075 -0.661060
v -0.811804 0.402055 -0.798555
v -0.808489 0.000000 -0.834594
v -0.969065 0.000000 -0.409480
v -1.066361 0.392539 -0.450978
v -0.962018 0.836210 -0.381171
v -0.691109 1.156042 -0.282866
v -0.369794 1.372976 -0.159853
v -0.384631 1.327672 0.000127
v -0.776120 1.177886 0.003893
v -1.012962 0.834419 -0.006169
v -1.187750 0.413207 0.015469
v -1.110416 0.000000 0.027583
v -1.098877 0.000000 0.458205
v -1.099551 0.427944 0.462281
v -0.817658 0.780419 0.326100
v -0.709658 1.183403 0.302008
v -0.361895 1.339715 0.153066
v -0.280265 1.344116 0.283116
v -0.526188 1.136603 0.523167
v -0.610950 0.787611 0.639857
v -0.850323 0.440391 0.885067
v -0.673180 0.000000 0.665498
v -0.366579 0.000000 0.880797
v -0.419186 0.425637 0.961158
v -0.390954 0.884372 0.944101
v -0.264199 1.086628 0.641057
v -0.152595 1.339089 0.366170
v -0.003096 1.319767 0.381802
v -0.001651 1.081540 0.705977
v -0.013444 0.889008 1.061298
v -0.012279 0.410878 1.073879
v 0.005900 0.000000 0.994423
v 0.389474 0.000000 0.941894
v 0.385362 0.408121 0.911195
v 0.387548 0.826439 0.930454
v 0.278086 1.106535 0.680544
v 0.143910 1.311755 0.346971
v 0.262348 1.303698 0.262709
v 0.517069 1.107326 0.527730
v 0.667883 0.808239 0.677918
v 0.790592 0.395257 0.790972
v 0.693777 0.000000 0.700390
v 0.973100 0.000000 0.402140
v 1.008826 0.394012 0.432133
v 0.912047 0.835648 0.388235
v 0.695915 1.140411 0.304028
v 0.344220 1.305090 0.141799
v 0.750286 1.141750 0.012354
v 1.070080 0.861060 0.012694
v 1.018816 0.398039 0.002557
vn 0.986648 -0.049991 -0.155006
vn 0.959225 0.004605 -0.282607
vn 0.641240 0.682585 -0.350555
vn 0.470335 0.862338 -0.187504
vn 0.357913 0.933699 -0.010230
vn 0.300575 0.941882 -0.150042
vn 0.480946 0.822252 -0.304290
vn 0.617944 0.599704 -0.508429
vn 0.808711 0.290383 -0.511530
vn 0.916490 -0.044995 -0.397518
vn 0.533624 -0.094103 -0.840471
vn 0.503834 0.431111 -0.748528
vn 0.465930 0.547328 -0.695227
vn 0.378529 0.799526 -0.466341
vn 0.294366 0.942775 -0.156604
vn 0.289883 0.943798 -0.158785
vn 0.241858 0.759365 -0.604045
vn 0.187513 0.530414 -0.826740
vn 0.113864 0.376966 -0.919202
vn 0.190155 0.001330 -0.981753
vn -0.105965 0.340368 -0.934303
vn -0.247896 0.258169 -0.933754
vn -0.191095 0.528800 -0.826954
vn -0.120874 0.713521 -0.690128
vn 0.137907 0.976442 -0.165961
vn -0.067830 0.993804 -0.088051
vn -0.399568 0.680618 -0.614089
vn -0.440361 0.557168 -0.704021
vn -0.375355 0.326560 -0.867449
vn -0.471815 0.307756 -0.826243
vn -0.874587 -0.113977 -0.471281
vn -0.686418 0.366398 -0.628158
vn -0.515650 0.594610 -0.616883
vn -0.513848 0.764796 -0.388648
vn -0.300771 0.944020 0.135508
vn -0.336382 0.913812 0.227584
vn -0.449705 0.891562 -0.053691
vn -0.767493 0.616322 -0.176354
vn -0.929676 0.311036 -0.197380
vn -0.937812 -0.221062 -0.267658
vn -0.989338 -0.090661 0.113980
vn -0.788365 0.529305 0.313556
vn -0.837672 0.394091 0.378152
vn -0.375537 0.926019 0.038213
vn -0.339435 0.940334 -0.023584
vn -0.276367 0.950609 0.141296
vn -0.315661 0.883938 0.344981
vn -0.759255 0.302506 0.576214
vn -0.634100 0.676521 0.374482
vn -0.645313 -0.311768 0.697403
vn -0.345336 -0.387618 0.854690
vn -0.497521 0.413362 0.762630
vn -0.545305 0.630140 0.552781
vn -0.186684 0.793518 0.579205
vn -0.141801 0.950779 0.275521
vn 0.082589 0.929590 0.359223
vn -0.075781 0.778173 0.623462
vn -0.138184 0.861955 0.487790
vn -0.280608 0.038447 0.959052
vn -0.276635 -0.202866 0.939318
vn 0.265092 -0.050110 0.962920
vn 0.344434 -0.007385 0.938782
vn 0.178450 0.789268 0.587547
vn 0.044827 0.832586 0.552078
vn 0.134863 0.924485 0.356566
vn 0.270357 0.917318 0.292291
vn 0.283367 0.871379 0.400501
vn 0.489037 0.633770 0.599316
vn 0.476825 0.166512 0.863083
vn 0.449329 -0.117857 0.885558
vn 0.777401 -0.220540 0.589076
vn 0.770665 0.301071 0.561633
vn 0.594912 0.578237 0.558321
vn 0.306714 0.895799 0.321667
vn 0.326514 0.916368 0.231644
vn 0.357720 0.921051 0.153951
vn 0.400110 0.910255 0.106528
vn 0.696298 0.673305 0.248656
vn 0.976910 0.056836 0.205953
vn 0.996375 -0.075945 0.038344
s off
f 81//1 3//1 4//1
f 81//1 4//1 5//1
f 80//2 81//2 5//2
f 80//2 5//2 6//2
f 79//3 80//3 6//3
f 79//3 6//3 7//3
f 2//4 79//4 7//4
f 2//4 7//4 8//4
f 1//5 2//5 8//5
f 1//6 8//6 9//6
f 8//7 7//7 10//7
f 8//7 10//7 9//7
f 7//8 6//8 11//8
f 7//8 11//8 10//8
f 6//9 5//9 12//9
f 6//9 12//9 11//9
f 5//10 4//10 13//10
f 5//10 13//10 12//10
f 12//11 13//11 14//11
f 12//11 14//11 15//11
f 11//12 12//12 15//12
f 11//12 15//12 16//12
f 10//13 11//13 16//13
f 10//13 16//13 17//13
f 9//14 10//14 17//14
f 9//14 17//14 18//14
f 1//15 9//15 18//15
f 1//16 18//16 19//16
f 18//17 17//17 20//17
f 18//17 20//17 19//17
f 17//18 16//18 21//18
f 17//18 21//18 20//18
f 16//19 15//19 22//19
f 16//19 22//19 21//19
f 15//20 14//20 23//20
f 15//20 23//20 22//20
f 22//21 23//21 24//21
f 22//21 24//21 25//21
f 21//22 22//22 25//22
f 21//22 25//22 26//22
f 20//23 21//23 26//23
f 20//23 26//23 27//23
f 19//24 20//24 27//24
f 19//24 27//24 28//24
f 1//25 19//25 28//25
f 1//26 28//26 29//26
f 28//27 27//27 30//27
f 28//27 30//27 29//27
f 27//28 26//28 31//28
f 27//28 31//28 30//28
f 26//29 25//29 32//29
f 26//29 32//29 31//29
f 25//30 24//30 33//30
f 25//30 33//30 32//30
f 32//31 33//31 34//31
f 32//31 34//31 35//31
f 31//32 32//32 35//32
f 31//32 35//32 36//32
f 30//33 31//33 36//33
f 30//33 36//33 37//33
f 29//34 30//34 37//34
f 29//34 37//34 38//34
f 1//35 29//35 38//35
f 1//36 38//36 39//36
f 38//37 37//37 40//37
f 38//37 40//37 39//37
f 37//38 36//38 41//38
f 37//38 41//38 40//38
f 36//39 35//39 42//39
f 36//39 42//39 41//39
f 35//40 34//40 43//40
f 35//40 43//40 42//40
f 42//41 43//41 44//41
f 42//41 44//41 45//41
f 41//42 42//42 45//42
f 41//42 45//42 46//42
f 40//43 41//43 46//43
f 40//43 46//43 47//43
f 39//44 40//44 47//44
f 39//44 47//44 48//44
f 1//45 39//45 48//45
f 1//46 48//46 49//46
f 48//47 47//47 50//47
f 48//47 50//47 49//47
f 47//48 46//48 51//48
f 47//48 51//48 50//48
f 46//49 45//49 52//49
f 46//49 52//49 51//49
f 45//50 44//50 53//50
f 45//50 53//50 52//50
f 52//51 53//51 54//51
f 52//51 54//51 55//51
f 51//52 52//52 55//52
f 51//52 55//52 56//52
f 50//53 51//53 56//53
f 50//53 56//53 57//53
f 49//54 50//54 57//54
f 49//54 57//54 58//54
f 1//55 49//55 58//55
f 1//56 58//56 59//56
f 58//57 57//57 60//57
f 58//57 60//57 59//57
f 57//58 56//58 61//58
f 57//58 61//58 60//58
f 56//59 55//59 62//59
f 56//59 62//59 61//59
f 55//60 54//60 63//60
f 55//60 63//60 62//60
f 62//61 63//61 64//61
f 62//61 64//61 65//61
f 61//62 62//62 65//62
f 61//62 65//62 66//62
f 60//63 61//63 66//63
f 60//63 66//63 67//63
f 59//64 60//64 67//64
f 59//64 67//64 68//64
f 1//65 59//65 68//65
f 1//66 68//66 69//66
f 68//67 67//67 70//67
f 68//67 70//67 69//67
f 67//68 66//68 71//68
f 67//68 71//68 70//68
f 66//69 65//69 72//69
f 66//69 72//69 71//69
f 65//70 64//70 73//70
f 65//70 73//70 72//70
f 72//71 73//71 74//71
f 72//71 74//71 75//71
f 71//72 72//72 75//72
f 71//72 75//72 76//72
f 70//73 71//73 76//73
f 70//73 76//73 77//73
f 69//74 70//74 77//74
f 69//74 77//74 78//74
f 1//75 69//75 78//75
f 1//76 78//76 2//76
f 78//77 77//77 79//77
f 78//77 79//77 2//77
f 77//78 76//78 80//78
f 77//78 80//78 79//78
f 76//79 75//79 81//79
f 76//79 81//79 80//79
f 75//80 74//80 3//80
f 75//80 3//80 81//80
