# Blender v2.62 (sub 0) OBJ File: 'stairs.blend'
# www.blender.org
o Cube.001
v 3.000000 0.000000 0.000000
v 3.000000 0.000000 2.000000
v -3.000000 0.000000 2.000000
v -2.999999 0.000000 -0.000001
v 3.000001 0.500000 0.000001
v 2.999998 0.500000 2.000001
v -3.000001 0.500000 1.999999
v -3.000000 0.500000 0.000000
v 3.000000 0.000000 1.500000
v -2.999999 0.000000 1.499999
v 3.000001 0.500000 1.500001
v -3.000000 0.500000 1.500000
v 3.000001 1.000000 1.500001
v -3.000000 1.000000 1.500000
v -3.000000 1.000000 0.000000
v 3.000001 1.000000 0.000001
v 3.000000 0.000000 1.000000
v -2.999999 0.000000 0.999999
v 3.000001 0.500000 1.000001
v -3.000000 0.500000 1.000000
v -3.000000 1.000000 1.000000
v 3.000001 1.000000 1.000001
v -3.000000 1.500000 1.000000
v 3.000001 1.500000 1.000001
v 3.000001 1.500000 0.000001
v -3.000000 1.500000 0.000000
v 3.000000 0.000000 0.475000
v -2.999999 0.000000 0.474999
v 3.000001 0.500000 0.475001
v -3.000000 0.500000 0.475000
v -3.000000 1.000000 0.475000
v 3.000001 1.000000 0.475001
v 3.000001 1.500000 0.475001
v -3.000000 1.500000 0.475000
v 3.000001 2.000000 0.475001
v -3.000000 2.000000 0.475000
v -3.000000 2.000000 0.000000
v 3.000001 2.000000 0.000001
vt 0.000000 0.000000
vt 1.000000 0.000000
vt 1.000000 1.000000
vt 0.000000 1.000000
vn -0.000000 -0.000001 1.000000
vn 0.000000 0.000002 -1.000000
vn 0.000000 -1.000000 0.000000
vn 0.000000 1.000000 0.000000
vn 1.000000 0.000000 0.000003
vn -1.000000 -0.000001 -0.000002
vn -0.000000 0.000000 1.000000
vn 0.000000 0.000000 -1.000000
vn 1.000000 -0.000002 0.000000
vn -1.000000 -0.000001 0.000000
vn -1.000000 -0.000000 0.000000
vn 1.000000 0.000000 0.000001
vn 1.000000 -0.000003 0.000000
vn -1.000000 0.000000 -0.000001
vn 1.000000 0.000000 0.000000
s off
f 2/1/1 6/2/1 7/3/1
f 2/1/1 7/3/1 3/4/1
f 5/1/2 1/2/2 4/3/2
f 5/1/2 4/3/2 8/4/2
f 9/1/3 2/2/3 3/3/3
f 9/1/3 3/3/3 10/4/3
f 12/1/4 7/2/4 6/3/4
f 12/1/4 6/3/4 11/4/4
f 11/1/5 6/2/5 2/3/5
f 11/1/5 2/3/5 9/4/5
f 7/1/6 12/2/6 10/3/6
f 7/1/6 10/3/6 3/4/6
f 12/1/7 11/2/7 13/3/7
f 12/1/7 13/3/7 14/4/7
f 5/1/8 8/2/8 15/3/8
f 5/1/8 15/3/8 16/4/8
f 17/1/3 9/2/3 10/3/3
f 17/1/3 10/3/3 18/4/3
f 19/1/9 11/2/9 9/3/9
f 19/1/9 9/3/9 17/4/9
f 12/1/10 20/2/10 18/3/10
f 12/1/10 18/3/10 10/4/10
f 20/1/11 12/2/11 14/3/11
f 20/1/11 14/3/11 21/4/11
f 11/1/12 19/2/12 22/3/12
f 11/1/12 22/3/12 13/4/12
f 21/1/4 14/2/4 13/3/4
f 21/1/4 13/3/4 22/4/4
f 21/1/7 22/2/7 24/3/7
f 21/1/7 24/3/7 23/4/7
f 16/1/8 15/2/8 26/3/8
f 16/1/8 26/3/8 25/4/8
f 1/1/3 27/2/3 28/3/3
f 1/1/3 28/3/3 4/4/3
f 27/1/3 17/2/3 18/3/3
f 27/1/3 18/3/3 28/4/3
f 27/1/13 1/2/13 5/3/13
f 27/1/13 5/3/13 29/4/13
f 29/1/13 19/2/13 17/3/13
f 29/1/13 17/3/13 27/4/13
f 20/1/10 30/2/10 28/3/10
f 20/1/10 28/3/10 18/4/10
f 30/1/10 8/2/10 4/3/10
f 30/1/10 4/3/10 28/4/10
f 8/1/14 30/2/14 31/3/14
f 8/1/14 31/3/14 15/4/14
f 30/1/11 20/2/11 21/3/11
f 30/1/11 21/3/11 31/4/11
f 19/1/15 29/2/15 32/3/15
f 19/1/15 32/3/15 22/4/15
f 29/1/15 5/2/15 16/3/15
f 29/1/15 16/3/15 32/4/15
f 22/1/15 32/2/15 33/3/15
f 22/1/15 33/3/15 24/4/15
f 32/1/15 16/2/15 25/3/15
f 32/1/15 25/3/15 33/4/15
f 15/1/14 31/2/14 34/3/14
f 15/1/14 34/3/14 26/4/14
f 31/1/11 21/2/11 23/3/11
f 31/1/11 23/3/11 34/4/11
f 34/1/4 23/2/4 24/3/4
f 34/1/4 24/3/4 33/4/4
f 34/1/7 33/2/7 35/3/7
f 34/1/7 35/3/7 36/4/7
f 26/1/14 34/2/14 36/3/14
f 26/1/14 36/3/14 37/4/14
f 33/1/15 25/2/15 38/3/15
f 33/1/15 38/3/15 35/4/15
f 25/1/8 26/2/8 37/3/8
f 25/1/8 37/3/8 38/4/8
f 37/1/4 36/2/4 35/3/4
f 37/1/4 35/3/4 38/4/4
